<svg height="800px" width="800px" version="1.1" id="Layer_1" xmlns="http://www.w3.org/2000/svg" xmlns:xlink="http://www.w3.org/1999/xlink" 
	 viewBox="0 0 511.999 511.999" xml:space="preserve">
<path style="fill:#ADDE52;" d="M462.838,10.685L322.786,34.302c-19.537,3.294-37.564,12.593-51.574,26.603L10.2,321.918
	L190.082,501.8l261.013-261.012c14.01-14.01,23.309-32.037,26.603-51.574l23.617-140.052
	C505.133,26.517,485.483,6.866,462.838,10.685z M436.996,112.338c-10.309,10.309-27.024,10.309-37.335,0
	c-10.309-10.309-10.309-27.024,0-37.335c10.309-10.309,27.024-10.309,37.335,0C447.305,85.313,447.305,102.028,436.996,112.338z"/>
<g>
	<path style="fill:#5E282D;" d="M190.082,511.999c-2.611,0-5.22-0.996-7.212-2.987L2.988,329.13c-3.983-3.983-3.983-10.441,0-14.424
		L264,53.692c15.598-15.597,35.34-25.78,57.091-29.448L461.142,0.63c14.093-2.38,27.967,2.055,38.069,12.159
		c10.103,10.103,14.536,23.979,12.159,38.069L487.754,190.91c-3.668,21.75-13.85,41.493-29.448,57.091L197.294,509.012
		C195.302,511.004,192.693,511.999,190.082,511.999z M24.623,321.918l165.458,165.458l253.802-253.801
		c12.584-12.584,20.799-28.51,23.759-46.059l23.616-140.052c1.264-7.496-1.094-14.878-6.469-20.253
		c-5.376-5.376-12.762-7.726-20.253-6.469l0,0L324.482,44.358c-17.548,2.96-33.475,11.175-46.059,23.759L24.623,321.918z
		 M418.329,130.252c-9.372,0-18.744-3.568-25.879-10.702c-14.269-14.269-14.269-37.489,0-51.758
		c14.27-14.268,37.488-14.268,51.758,0c14.269,14.269,14.269,37.489,0,51.758C437.073,126.685,427.701,130.252,418.329,130.252z
		 M418.329,77.478c-4.148,0-8.297,1.58-11.454,4.738c-6.316,6.316-6.316,16.594,0,22.91c6.316,6.316,16.594,6.316,22.91,0
		s6.316-16.594,0-22.91C426.626,79.058,422.477,77.478,418.329,77.478z"/>
	<path style="fill:#5E282D;" d="M158.589,343.228l19.438-19.438c2.777-2.777,6.941-1.893,9.844,1.01
		c2.398,2.398,3.787,6.564,0.758,9.592l-19.438,19.438l29.031,29.03l37.486-37.487c2.777-2.777,7.195-1.641,10.476,1.64
		c2.777,2.777,4.417,7.194,1.387,10.223l-44.934,44.934c-2.904,2.904-7.447,4.417-10.35,1.514l-83.431-83.431
		c-2.903-2.903-1.388-7.446,1.515-10.349l44.934-44.934c3.03-3.03,7.447-1.389,10.223,1.387c3.282,3.282,4.417,7.7,1.64,10.476
		l-37.487,37.487L158.589,343.228z"/>
	<path style="fill:#5E282D;" d="M208.823,235.185c-9.719,9.719-9.971,20.322,1.136,31.428l36.731,36.731
		c11.108,11.108,21.709,10.855,31.68,0.882c12.874-12.874,5.3-22.718,0.252-28.778c-3.029-3.535-1.515-7.322,2.146-10.982
		c4.67-4.67,8.205-5.426,13.757,0.126c13.884,13.884,12.117,35.089-5.175,52.381c-15.273,15.273-35.593,20.195-56.04-0.252
		l-36.731-36.731c-20.448-20.448-15.4-40.895-0.126-56.167c17.292-17.292,38.118-19.186,51.498-5.805
		c5.679,5.679,4.797,9.087,0.253,13.631c-4.04,4.04-7.953,5.174-11.109,2.272C232.426,229.757,221.823,222.184,208.823,235.185z"/>
	<path style="fill:#5E282D;" d="M301.591,248.442l-36.731-36.731c-20.448-20.448-15.904-40.39,0.126-56.42
		c15.903-15.903,36.098-20.7,56.545-0.252l36.731,36.731c20.447,20.447,15.65,40.642-0.253,56.544
		C341.98,264.346,322.038,268.889,301.591,248.442z M308.154,168.419c-11.108-11.108-21.963-10.603-31.302-1.263
		c-9.467,9.467-9.719,20.07,1.388,31.176l36.731,36.731c11.108,11.108,21.709,10.855,31.175,1.387
		c9.339-9.339,9.845-20.194-1.262-31.301L308.154,168.419z"/>
	<path style="fill:#5E282D;" d="M192.762,465.594c-2.611,0-5.22-0.996-7.212-2.987c-3.983-3.983-3.983-10.441,0-14.424
		l60.684-60.684c3.984-3.982,10.44-3.982,14.424,0c3.983,3.983,3.983,10.441,0,14.424l-60.684,60.684
		C197.982,464.598,195.372,465.594,192.762,465.594z"/>
	<path style="fill:#5E282D;" d="M276.394,381.962c-2.611,0-5.22-0.996-7.212-2.987c-3.983-3.983-3.983-10.441,0-14.424l4.59-4.59
		c3.984-3.982,10.44-3.982,14.424,0c3.983,3.983,3.983,10.441,0,14.424l-4.59,4.59C281.614,380.967,279.004,381.962,276.394,381.962
		z"/>
</g>
</svg>