<svg width="25" height="25" viewBox="0 0 25 25" fill="none" xmlns="http://www.w3.org/2000/svg">
<path d="M23.75 12.5C23.7499 11.0225 23.4589 9.55958 22.8934 8.19462C22.3279 6.82966 21.4991 5.58945 20.4544 4.54479C19.4096 3.50013 18.1693 2.67148 16.8043 2.10616C15.4392 1.54084 13.9762 1.24992 12.4988 1.25C11.0213 1.25008 9.55836 1.54117 8.1934 2.10664C6.82844 2.67211 5.58823 3.5009 4.54357 4.54567C3.49891 5.59045 2.67026 6.83075 2.10494 8.19577C1.53962 9.56079 1.2487 11.0238 1.24878 12.5013C1.24895 15.4851 2.43443 18.3467 4.54445 20.4565C6.65447 22.5662 9.51618 23.7514 12.5 23.7512C15.4839 23.7511 18.3455 22.5656 20.4552 20.4556C22.565 18.3456 23.7502 15.4839 23.75 12.5V12.5ZM12.5 3.25C13.5375 3.25 14.375 4.0875 14.375 5.125C14.375 6.1625 13.5375 7.0125 12.5 7.0125C11.475 7.0125 10.625 6.1625 10.625 5.125C10.625 4.0875 11.475 3.25 12.5 3.25ZM4.25003 9.2C4.25003 8.3875 12.5 8.25 12.5 8.25C12.5 8.25 20.75 8.3875 20.75 9.2C20.75 10.0125 15.1625 10.95 15.1625 10.95C15.1625 10.95 17.275 21.125 16.4875 21.425C15.7125 21.725 12.5 14.9375 12.5 14.9375C12.5 14.9375 9.30003 21.725 8.52503 21.425C7.73753 21.125 9.85003 10.95 9.85003 10.95C9.85003 10.95 4.25003 10.0125 4.25003 9.2Z" fill="#312A41"/>
</svg>
