<svg width="144" height="52" viewBox="0 0 144 52" fill="none" xmlns="http://www.w3.org/2000/svg">
<path d="M51.68 12.205C53.21 12.205 53.99 11.485 53.99 10.63V10.39C53.99 9.445 53.375 8.965 51.62 8.59C49.58 8.155 48.02 7.525 48.02 5.575V5.305C48.02 3.835 49.235 2.41 51.725 2.41C53.045 2.41 54.11 2.74 55.025 3.355L54.32 4.51C53.525 3.97 52.73 3.745 51.74 3.745C50.39 3.745 49.505 4.435 49.505 5.29V5.53C49.505 6.52 50.39 6.88 51.995 7.24C54.665 7.84 55.49 8.785 55.49 10.285V10.555C55.49 12.535 53.855 13.555 51.635 13.555C50.105 13.555 48.77 13 47.87 12.28L48.62 11.065C49.43 11.68 50.75 12.205 51.68 12.205ZM61.5382 13.555C58.9582 13.555 57.1432 11.98 57.1432 8.8V7.165C57.1432 4.015 58.9732 2.41 61.5382 2.41C64.1032 2.41 65.9332 4.015 65.9332 7.165V8.8C65.9332 11.98 64.1182 13.555 61.5382 13.555ZM61.5382 3.76C59.8582 3.76 58.6432 4.795 58.6432 7.33V8.635C58.6432 11.17 59.8582 12.205 61.5382 12.205C63.2332 12.205 64.4332 11.17 64.4332 8.635V7.33C64.4332 4.795 63.2332 3.76 61.5382 3.76ZM75.084 11.035L75.894 12.175C74.814 13.21 73.524 13.555 72.069 13.555C69.489 13.555 67.734 11.98 67.734 8.8V7.165C67.734 4.015 69.504 2.41 72.069 2.41C73.554 2.41 74.634 2.77 75.639 3.565L74.874 4.78C73.899 3.985 73.044 3.79 72.069 3.79C70.434 3.79 69.234 4.885 69.234 7.36V8.605C69.234 11.08 70.434 12.175 72.069 12.175C73.104 12.175 74.184 11.92 75.084 11.035ZM77.7173 2.575H79.2023V13.39H77.7173V2.575ZM86.1877 2.575L90.2227 13.39H88.6627L87.5227 10.21H83.3827L82.2427 13.39H80.7277L84.7477 2.575H86.1877ZM84.7477 6.4L83.8327 8.935H87.0727L86.1727 6.4C85.8427 5.5 85.7527 5.215 85.4527 4.225C85.1527 5.23 85.0627 5.5 84.7477 6.4ZM91.7505 2.575H93.2355V12.115H98.4105V13.39H91.7505V2.575Z" fill="black"/>
<path d="M11.25 47C11.25 47.4142 11.5858 47.75 12 47.75C12.4142 47.75 12.75 47.4142 12.75 47H11.25ZM12.75 39C12.75 38.5858 12.4142 38.25 12 38.25C11.5858 38.25 11.25 38.5858 11.25 39H12.75ZM15 33.75C15.4142 33.75 15.75 33.4142 15.75 33C15.75 32.5858 15.4142 32.25 15 32.25V33.75ZM12 36H11.25H12ZM11.25 39C11.25 39.4142 11.5858 39.75 12 39.75C12.4142 39.75 12.75 39.4142 12.75 39H11.25ZM12 38.25C11.5858 38.25 11.25 38.5858 11.25 39C11.25 39.4142 11.5858 39.75 12 39.75V38.25ZM14 39.75C14.4142 39.75 14.75 39.4142 14.75 39C14.75 38.5858 14.4142 38.25 14 38.25V39.75ZM12 39.75C12.4142 39.75 12.75 39.4142 12.75 39C12.75 38.5858 12.4142 38.25 12 38.25V39.75ZM10 38.25C9.58579 38.25 9.25 38.5858 9.25 39C9.25 39.4142 9.58579 39.75 10 39.75V38.25ZM12.75 47V39H11.25V47H12.75ZM15 32.25C12.9289 32.25 11.25 33.9289 11.25 36H12.75C12.75 34.7574 13.7574 33.75 15 33.75V32.25ZM11.25 36V39H12.75V36H11.25ZM12 39.75H14V38.25H12V39.75ZM12 38.25H10V39.75H12V38.25Z" fill="black"/>
<path fill-rule="evenodd" clip-rule="evenodd" d="M55 33H49C46.7909 33 45 34.7909 45 37V43C45 45.2091 46.7909 47 49 47H55C57.2091 47 59 45.2091 59 43V37C59 34.7909 57.2091 33 55 33Z" stroke="black" stroke-width="1.5" stroke-linecap="round" stroke-linejoin="round"/>
<path fill-rule="evenodd" clip-rule="evenodd" d="M52 43C50.3431 43 49 41.6569 49 40C49 38.3431 50.3431 37 52 37C53.6569 37 55 38.3431 55 40C55 40.7956 54.6839 41.5587 54.1213 42.1213C53.5587 42.6839 52.7956 43 52 43Z" stroke="black" stroke-width="1.5" stroke-linecap="round" stroke-linejoin="round"/>
<rect x="55" y="37" width="2" height="2" rx="1" transform="rotate(-90 55 37)" fill="black"/>
<rect x="55.5" y="36.5" width="1" height="1" rx="0.5" transform="rotate(-90 55.5 36.5)" stroke="black" stroke-linecap="round"/>
<path fill-rule="evenodd" clip-rule="evenodd" d="M93 47.0001C96.1157 46.9994 98.8559 44.9396 99.7224 41.9468C100.589 38.954 99.373 35.7487 96.7396 34.0836C94.1062 32.4185 90.6892 32.6943 88.357 34.7603C86.0247 36.8262 85.3387 40.185 86.674 43.0001L85 47.0001L89.392 46.0001C90.4809 46.6564 91.7286 47.0022 93 47.0001Z" stroke="black" stroke-width="1.5" stroke-linecap="round" stroke-linejoin="round"/>
<path fill-rule="evenodd" clip-rule="evenodd" d="M91.0411 39.066C90.4718 39.061 90.0138 38.5963 90.0171 38.027C90.0204 37.4577 90.4837 36.9984 91.0531 37C91.6224 37.0016 92.0831 37.4636 92.0831 38.033C92.0803 38.6058 91.614 39.0682 91.0411 39.066V39.066Z" stroke="black" stroke-width="1.5" stroke-linecap="round" stroke-linejoin="round"/>
<path fill-rule="evenodd" clip-rule="evenodd" d="M93.917 41.918C93.9138 42.3397 94.1652 42.7217 94.5538 42.8854C94.9424 43.0491 95.3914 42.9622 95.6909 42.6653C95.9904 42.3684 96.0811 41.9202 95.9208 41.5302C95.7605 41.1402 95.3807 40.8854 94.959 40.885C94.3861 40.8828 93.9198 41.3451 93.917 41.918V41.918Z" stroke="black" stroke-width="1.5" stroke-linecap="round" stroke-linejoin="round"/>
<path d="M90 38.0332C89.986 41.5002 93.3 43.3302 94.959 42.9512" stroke="black" stroke-width="1.5" stroke-linecap="round"/>
<path fill-rule="evenodd" clip-rule="evenodd" d="M132 46.0044C135.726 46.1372 138.857 43.23 139 39.5044C138.857 35.7788 135.726 32.8715 132 33.0044C128.274 32.8715 125.143 35.7788 125 39.5044C125.017 41.4739 125.951 43.3229 127.527 44.5044L127.5 47.5044L130.5 45.8544C130.994 45.9543 131.496 46.0046 132 46.0044Z" stroke="black" stroke-width="1.5" stroke-linecap="round" stroke-linejoin="round"/>
<path d="M135.5 38.0044L133 40.5044L131 38.5044L128.5 41.0044" stroke="black" stroke-width="1.5" stroke-linecap="round" stroke-linejoin="round"/>
</svg>
