<svg width="20" height="20" viewBox="0 0 20 20" fill="none" xmlns="http://www.w3.org/2000/svg">
<path d="M13.8066 13.8071L19 19M13.7441 3.18661C14.4374 3.87975 14.9873 4.70265 15.3626 5.60832C15.7378 6.51399 15.931 7.48469 15.9311 8.46501C15.9312 9.44533 15.7381 10.4161 15.363 11.3218C14.9879 12.2275 14.438 13.0505 13.7448 13.7437C13.0516 14.437 12.2287 14.9869 11.3229 15.3621C10.4172 15.7373 9.44639 15.9305 8.46598 15.9306C7.48558 15.9306 6.51476 15.7376 5.60896 15.3625C4.70315 14.9875 3.8801 14.4377 3.1868 13.7445C1.78662 12.3444 1 10.4456 1 8.46556C1 6.48557 1.78662 4.58668 3.1868 3.18661C4.58699 1.78655 6.48605 1 8.46621 1C10.4464 1 12.3454 1.78655 13.7456 3.18661H13.7441Z" stroke="#696969" stroke-width="1.5"/>
</svg>
